<?xml version="1.0" ?><svg id="Apple" viewBox="0 0 48 48" xmlns="http://www.w3.org/2000/svg" xmlns:xlink="http://www.w3.org/1999/xlink"><defs><style>.cls-1{fill:url(#Nepojmenovaný_přechod_27);}.cls-2{fill:#fff;}</style><linearGradient gradientUnits="userSpaceOnUse" id="Nepojmenovaný_přechod_27" x1="30.77" x2="17.23" y1="47.63" y2="0.37"><stop offset="0" stop-color="#ffdb73"/><stop offset="0.08" stop-color="#fdad4e"/><stop offset="0.15" stop-color="#fb832e"/><stop offset="0.19" stop-color="#fa7321"/><stop offset="0.23" stop-color="#f6692f"/><stop offset="0.37" stop-color="#e84a5a"/><stop offset="0.48" stop-color="#e03675"/><stop offset="0.55" stop-color="#dd2f7f"/><stop offset="0.68" stop-color="#b43d97"/><stop offset="0.97" stop-color="#4d60d4"/><stop offset="1" stop-color="#4264db"/></linearGradient></defs><rect class="cls-1" height="43.6" rx="10.05" ry="10.05" width="43.6" x="2.2" y="2.2"/><path class="cls-2" d="M31.03,10.8a6.27,6.27,0,0,1,6.25,6.25V30.95a6.27,6.27,0,0,1-6.25,6.25H16.97a6.27,6.27,0,0,1-6.25-6.25V17.05a6.27,6.27,0,0,1,6.25-6.25H31.03m0-2.91H16.97c-5.04,0-9.16,4.13-9.16,9.16V30.95c0,5.04,4.13,9.16,9.16,9.16H31.03c5.04,0,9.16-4.13,9.16-9.16V17.05c0-5.04-4.12-9.16-9.16-9.16Z"/><path class="cls-2" d="M24,18.58A5.42,5.42,0,1,1,18.58,24,5.43,5.43,0,0,1,24,18.58m0-2.91A8.33,8.33,0,1,0,32.33,24,8.33,8.33,0,0,0,24,15.67Z"/><circle class="cls-2" cx="32.51" cy="15.3" r="1.98"/></svg>